<?xml version="1.0" encoding="UTF-8" standalone="no"?>
<!DOCTYPE svg PUBLIC "-//W3C//DTD SVG 1.1//EN" "http://www.w3.org/Graphics/SVG/1.1/DTD/svg11.dtd">
<svg width="100%" height="100%" viewBox="0 0 400 400" version="1.1" xmlns="http://www.w3.org/2000/svg" xmlns:xlink="http://www.w3.org/1999/xlink" xml:space="preserve" xmlns:serif="http://www.serif.com/" style="fill-rule:evenodd;clip-rule:evenodd;stroke-linejoin:round;stroke-miterlimit:2;">
    <rect id="Artboard1" x="0" y="0" width="400" height="400" style="fill:none;"/>
    <g id="Artboard11" serif:id="Artboard1">
        <g id="Fróðskaparsetrið" transform="matrix(0.649786,0,0,0.649786,49.7438,103.252)">
            <g transform="matrix(4.16667,0,0,4.16667,0,0)">
                <path d="M0.843,56.54C0.843,55.055 0.843,54.786 0.82,54.482C0.798,54.155 0.742,53.998 0.416,53.954C0.337,53.942 0.168,53.93 0.078,53.93C0.044,53.93 0,53.885 0,53.852C0,53.795 0.044,53.773 0.157,53.773C0.607,53.773 1.226,53.795 1.282,53.795C1.473,53.795 3.622,53.806 3.847,53.795C4.038,53.784 4.207,53.784 4.297,53.75C4.353,53.739 4.398,53.694 4.432,53.694C4.476,53.694 4.499,53.739 4.499,53.784C4.499,53.852 4.455,53.963 4.42,54.235C4.409,54.325 4.398,54.752 4.375,54.864C4.364,54.909 4.33,54.965 4.286,54.965C4.24,54.965 4.207,54.92 4.207,54.852C4.207,54.774 4.172,54.617 4.116,54.493C4.06,54.37 3.824,54.211 3.441,54.211L1.822,54.189C1.766,54.189 1.743,54.211 1.743,54.291L1.743,56.9C1.743,56.957 1.743,56.99 1.811,56.99L3.161,56.979C3.329,56.979 3.475,56.979 3.61,56.967C3.847,56.946 3.982,56.912 4.072,56.799C4.116,56.743 4.162,56.698 4.195,56.698C4.24,56.698 4.251,56.731 4.251,56.777C4.251,56.833 4.184,56.99 4.162,57.305C4.139,57.497 4.128,57.879 4.128,57.946C4.128,58.036 4.105,58.137 4.038,58.137C3.982,58.137 3.97,58.092 3.97,58.047C3.959,57.946 3.948,57.811 3.903,57.699C3.858,57.564 3.7,57.44 3.396,57.395C3.149,57.362 1.979,57.373 1.811,57.373C1.754,57.373 1.743,57.395 1.743,57.463L1.743,58.227C1.743,59.172 1.743,59.926 1.788,60.297C1.822,60.579 1.878,60.759 2.148,60.803C2.294,60.827 2.508,60.849 2.598,60.849C2.654,60.849 2.676,60.893 2.676,60.928C2.676,60.972 2.632,61.006 2.52,61.006C1.968,61.006 1.327,60.972 1.282,60.972C1.226,60.972 0.607,61.006 0.303,61.006C0.202,61.006 0.145,60.984 0.145,60.928C0.145,60.893 0.168,60.849 0.225,60.849C0.314,60.849 0.438,60.815 0.528,60.803C0.719,60.77 0.742,60.579 0.787,60.297C0.843,59.904 0.843,59.15 0.843,58.227L0.843,56.54Z" style="fill:rgb(35,31,32);fill-rule:nonzero;"/>
            </g>
            <g transform="matrix(4.16667,0,0,4.16667,0,0)">
                <path d="M7.998,57.35C7.998,57.407 8.021,57.44 8.066,57.474C8.212,57.553 8.718,57.62 9.157,57.62C9.393,57.62 9.663,57.609 9.899,57.452C10.237,57.227 10.495,56.72 10.495,55.989C10.495,54.796 9.843,54.11 8.786,54.11C8.493,54.11 8.178,54.145 8.077,54.167C8.032,54.189 7.998,54.223 7.998,54.28L7.998,57.35ZM7.143,56.54C7.143,55.055 7.143,54.786 7.12,54.482C7.098,54.155 7.042,53.998 6.716,53.954C6.637,53.942 6.468,53.93 6.378,53.93C6.344,53.93 6.299,53.885 6.299,53.852C6.299,53.795 6.344,53.773 6.457,53.773C6.907,53.773 7.571,53.795 7.627,53.795C7.728,53.795 8.56,53.773 8.864,53.773C9.494,53.773 10.191,53.829 10.709,54.189C10.957,54.37 11.396,54.831 11.396,55.494C11.396,56.203 11.103,56.889 10.181,57.676C10.99,58.689 11.677,59.555 12.251,60.151C12.779,60.692 13.106,60.782 13.353,60.815C13.543,60.849 13.645,60.849 13.701,60.849C13.758,60.849 13.791,60.893 13.791,60.928C13.791,60.984 13.735,61.006 13.555,61.006L12.936,61.006C12.374,61.006 12.127,60.95 11.879,60.815C11.452,60.59 11.092,60.129 10.529,59.409C10.113,58.891 9.674,58.273 9.46,58.014C9.415,57.969 9.393,57.958 9.325,57.958L8.066,57.936C8.021,57.936 7.998,57.958 7.998,58.014L7.998,58.239C7.998,59.162 7.998,59.904 8.043,60.297C8.077,60.579 8.133,60.759 8.437,60.803C8.572,60.827 8.786,60.849 8.875,60.849C8.943,60.849 8.955,60.893 8.955,60.928C8.955,60.972 8.909,61.006 8.797,61.006C8.256,61.006 7.627,60.972 7.582,60.972C7.571,60.972 6.907,61.006 6.603,61.006C6.502,61.006 6.446,60.984 6.446,60.928C6.446,60.893 6.468,60.849 6.524,60.849C6.614,60.849 6.738,60.827 6.828,60.803C7.02,60.759 7.042,60.579 7.086,60.297C7.143,59.904 7.143,59.15 7.143,58.227L7.143,56.54Z" style="fill:rgb(35,31,32);fill-rule:nonzero;"/>
            </g>
            <g transform="matrix(4.16667,0,0,4.16667,0,0)">
                <path d="M19.597,52.266C19.653,52.366 19.597,52.401 19.552,52.401C19.518,52.401 19.405,52.377 19.214,52.401C18.663,52.458 17.876,52.715 17.504,52.874C17.426,52.907 17.358,52.929 17.335,52.929C17.314,52.929 17.279,52.907 17.279,52.862C17.279,52.828 17.302,52.805 17.358,52.772C17.763,52.491 18.81,51.86 18.888,51.816C19.079,51.704 19.147,51.668 19.203,51.668C19.237,51.668 19.259,51.692 19.316,51.77C19.395,51.883 19.473,52.041 19.597,52.266ZM18.101,60.737C18.989,60.737 20.778,60.264 20.778,57.497C20.778,55.202 19.383,53.998 17.819,53.998C16.166,53.998 14.973,55.034 14.973,57.114C14.973,59.341 16.312,60.737 18.101,60.737ZM17.876,53.637C20.103,53.637 21.791,55 21.791,57.227C21.791,59.364 20.204,61.129 17.819,61.129C15.108,61.129 13.95,59.094 13.95,57.373C13.95,55.832 15.142,53.637 17.876,53.637Z" style="fill:rgb(35,31,32);fill-rule:nonzero;"/>
            </g>
            <g transform="matrix(4.16667,0,0,4.16667,0,0)">
                <path d="M25.167,58.059C25.167,58.869 25.167,59.499 25.177,59.657C25.189,59.893 25.211,60.241 25.29,60.342C25.414,60.522 25.762,60.725 26.933,60.725C27.843,60.725 28.676,60.411 29.261,59.848C29.778,59.364 30.026,58.464 30.026,57.586C30.026,56.372 29.509,55.606 29.104,55.202C28.17,54.256 27.067,54.133 25.875,54.133C25.65,54.133 25.346,54.155 25.29,54.201C25.2,54.235 25.167,54.28 25.167,54.392L25.167,57.159L27.168,57.159C27.236,57.159 27.258,57.193 27.236,57.26L27.202,57.474C27.191,57.542 27.124,57.553 27.067,57.553L25.167,57.553L25.167,58.059ZM24.266,56.54C24.266,55.055 24.266,54.786 24.244,54.482C24.222,54.155 24.166,53.998 23.839,53.954C23.76,53.942 23.591,53.93 23.502,53.93C23.467,53.93 23.423,53.885 23.423,53.852C23.423,53.795 23.467,53.773 23.58,53.773C24.03,53.773 24.649,53.795 24.705,53.795C24.817,53.795 25.47,53.773 26.055,53.773C27.045,53.773 28.856,53.683 30.026,54.864C30.521,55.36 30.993,56.158 30.993,57.293C30.993,58.498 30.476,59.42 29.925,59.983C29.497,60.42 28.608,61.084 26.921,61.084C26.494,61.084 25.965,61.051 25.526,61.029C25.087,60.995 24.751,60.972 24.705,60.972C24.683,60.972 24.514,60.984 24.312,60.984C24.109,60.995 23.884,61.006 23.727,61.006C23.625,61.006 23.569,60.984 23.569,60.928C23.569,60.893 23.591,60.849 23.648,60.849C23.738,60.849 23.862,60.827 23.952,60.803C24.143,60.759 24.166,60.579 24.21,60.297C24.266,59.904 24.266,59.15 24.266,58.227L24.266,57.542L23.411,57.542C23.333,57.542 23.333,57.508 23.344,57.44L23.377,57.249C23.389,57.181 23.423,57.17 23.502,57.17L24.266,57.17L24.266,56.54Z" style="fill:rgb(35,31,32);fill-rule:nonzero;"/>
            </g>
            <g transform="matrix(4.16667,0,0,4.16667,0,0)">
                <path d="M32.963,60.872C32.828,60.803 32.816,60.77 32.816,60.512C32.816,60.04 32.862,59.657 32.873,59.499C32.873,59.397 32.896,59.341 32.952,59.341C33.008,59.341 33.042,59.375 33.042,59.454C33.042,59.532 33.042,59.667 33.076,59.803C33.233,60.5 33.976,60.748 34.639,60.748C35.618,60.748 36.124,60.196 36.124,59.476C36.124,58.79 35.752,58.464 34.876,57.811L34.425,57.474C33.357,56.675 33.008,56.09 33.008,55.426C33.008,54.301 33.897,53.626 35.202,53.626C35.596,53.626 35.989,53.683 36.225,53.739C36.417,53.784 36.495,53.784 36.574,53.784C36.653,53.784 36.675,53.795 36.675,53.852C36.675,53.897 36.63,54.211 36.63,54.864C36.63,55.01 36.619,55.078 36.551,55.078C36.484,55.078 36.473,55.034 36.461,54.954C36.451,54.842 36.372,54.583 36.315,54.482C36.248,54.37 35.922,54.009 35.033,54.009C34.313,54.009 33.717,54.37 33.717,55.043C33.717,55.651 34.021,56 34.999,56.665L35.28,56.856C36.484,57.676 36.9,58.34 36.9,59.162C36.9,59.723 36.687,60.331 35.978,60.792C35.562,61.063 34.943,61.129 34.403,61.129C33.942,61.129 33.368,61.063 32.963,60.872Z" style="fill:rgb(35,31,32);fill-rule:nonzero;"/>
            </g>
            <g transform="matrix(4.16667,0,0,4.16667,0,0)">
                <path d="M39.432,56.54C39.432,55.055 39.432,54.786 39.409,54.482C39.387,54.155 39.331,53.998 39.004,53.954C38.925,53.942 38.756,53.93 38.667,53.93C38.633,53.93 38.588,53.885 38.588,53.852C38.588,53.795 38.633,53.773 38.746,53.773C39.195,53.773 39.803,53.795 39.859,53.795C39.949,53.795 40.545,53.773 40.838,53.773C40.951,53.773 40.995,53.795 40.995,53.852C40.995,53.885 40.962,53.93 40.917,53.93C40.849,53.93 40.793,53.93 40.669,53.954C40.411,54.009 40.343,54.145 40.321,54.482C40.298,54.786 40.298,55.055 40.298,56.54L40.298,57.114L40.343,57.114C40.501,56.934 42.267,55.19 42.638,54.808C42.919,54.526 43.178,54.28 43.178,54.122C43.178,53.998 43.132,53.942 43.054,53.93C42.998,53.919 42.964,53.874 42.964,53.84C42.964,53.795 43.009,53.773 43.076,53.773C43.279,53.773 43.583,53.795 43.819,53.795C43.875,53.795 44.528,53.773 44.775,53.773C44.877,53.773 44.921,53.795 44.921,53.84C44.921,53.885 44.899,53.919 44.82,53.919C44.674,53.919 44.46,53.975 44.269,54.053C43.864,54.235 43.673,54.448 43.234,54.864C42.986,55.089 41.299,56.709 41.085,56.946C41.344,57.227 43.403,59.285 43.808,59.657C44.64,60.399 44.753,60.522 45.225,60.713C45.484,60.815 45.765,60.849 45.833,60.849C45.9,60.849 45.956,60.882 45.956,60.928C45.956,60.972 45.912,61.006 45.743,61.006L45.236,61.006C44.955,61.006 44.775,61.006 44.55,60.984C44.033,60.939 43.774,60.725 43.347,60.399C42.897,60.05 40.815,57.856 40.343,57.293L40.298,57.293L40.298,58.227C40.298,59.15 40.298,59.904 40.343,60.297C40.377,60.579 40.421,60.759 40.725,60.803C40.86,60.827 41.018,60.849 41.108,60.849C41.164,60.849 41.187,60.893 41.187,60.928C41.187,60.972 41.141,61.006 41.029,61.006C40.545,61.006 39.949,60.972 39.871,60.972C39.792,60.972 39.195,61.006 38.892,61.006C38.791,61.006 38.734,60.984 38.734,60.928C38.734,60.893 38.756,60.849 38.813,60.849C38.903,60.849 39.027,60.827 39.117,60.803C39.308,60.759 39.331,60.579 39.376,60.297C39.432,59.904 39.432,59.15 39.432,58.227L39.432,56.54Z" style="fill:rgb(35,31,32);fill-rule:nonzero;"/>
            </g>
            <g transform="matrix(4.16667,0,0,4.16667,0,0)">
                <path d="M50.535,57.946C50.581,57.946 50.581,57.924 50.569,57.879L49.59,55.258C49.534,55.112 49.478,55.112 49.421,55.258L48.5,57.879C48.488,57.924 48.5,57.946 48.533,57.946L50.535,57.946ZM49.433,53.963C49.557,53.649 49.602,53.593 49.669,53.593C49.771,53.593 49.804,53.728 49.906,53.942C50.085,54.346 51.672,58.295 52.279,59.747C52.639,60.602 52.909,60.725 53.123,60.792C53.269,60.837 53.416,60.849 53.517,60.849C53.573,60.849 53.64,60.872 53.64,60.928C53.64,60.984 53.528,61.006 53.416,61.006C53.269,61.006 52.538,61.006 51.852,60.984C51.66,60.972 51.502,60.972 51.502,60.917C51.502,60.872 51.525,60.872 51.57,60.849C51.627,60.827 51.728,60.748 51.66,60.59L50.772,58.397C50.749,58.352 50.738,58.34 50.682,58.34L48.398,58.34C48.353,58.34 48.319,58.363 48.297,58.418L47.734,59.949C47.644,60.185 47.588,60.42 47.588,60.59C47.588,60.782 47.757,60.849 47.925,60.849L48.015,60.849C48.094,60.849 48.117,60.882 48.117,60.928C48.117,60.984 48.061,61.006 47.971,61.006C47.734,61.006 47.194,60.972 47.082,60.972C46.981,60.972 46.485,61.006 46.081,61.006C45.957,61.006 45.89,60.984 45.89,60.928C45.89,60.882 45.934,60.849 45.98,60.849C46.047,60.849 46.193,60.837 46.272,60.827C46.722,60.77 46.914,60.432 47.105,59.949L49.433,53.963Z" style="fill:rgb(35,31,32);fill-rule:nonzero;"/>
            </g>
            <g transform="matrix(4.16667,0,0,4.16667,0,0)">
                <path d="M55.183,56.54C55.183,55.055 55.183,54.786 55.16,54.482C55.137,54.155 55.082,53.998 54.755,53.954C54.675,53.942 54.507,53.93 54.418,53.93C54.384,53.93 54.338,53.885 54.338,53.852C54.338,53.795 54.384,53.773 54.496,53.773C54.946,53.773 55.565,53.795 55.644,53.795C55.857,53.795 56.6,53.773 57.05,53.773C58.321,53.773 58.771,54.167 58.939,54.313C59.166,54.515 59.435,54.944 59.435,55.459C59.435,56.833 58.4,57.745 56.88,57.745C56.825,57.745 56.656,57.745 56.6,57.733C56.554,57.733 56.499,57.688 56.499,57.643C56.499,57.564 56.554,57.542 56.757,57.542C57.826,57.542 58.591,56.867 58.591,56C58.591,55.685 58.558,55.067 58.029,54.549C57.511,54.032 56.915,54.088 56.69,54.088C56.521,54.088 56.24,54.133 56.138,54.155C56.082,54.167 56.06,54.235 56.06,54.335L56.06,58.227C56.06,59.15 56.06,59.904 56.105,60.297C56.138,60.579 56.195,60.759 56.499,60.803C56.633,60.827 56.847,60.849 56.937,60.849C56.994,60.849 57.016,60.893 57.016,60.928C57.016,60.972 56.97,61.006 56.859,61.006C56.319,61.006 55.666,60.972 55.622,60.972C55.587,60.972 54.946,61.006 54.642,61.006C54.542,61.006 54.486,60.984 54.486,60.928C54.486,60.893 54.507,60.849 54.564,60.849C54.654,60.849 54.777,60.827 54.867,60.803C55.058,60.759 55.082,60.579 55.127,60.297C55.183,59.904 55.183,59.15 55.183,58.227L55.183,56.54Z" style="fill:rgb(35,31,32);fill-rule:nonzero;"/>
            </g>
            <g transform="matrix(4.16667,0,0,4.16667,0,0)">
                <path d="M64.171,57.946C64.216,57.946 64.216,57.924 64.205,57.879L63.226,55.258C63.169,55.112 63.114,55.112 63.058,55.258L62.134,57.879C62.124,57.924 62.134,57.946 62.169,57.946L64.171,57.946ZM63.068,53.963C63.193,53.649 63.238,53.593 63.305,53.593C63.406,53.593 63.44,53.728 63.541,53.942C63.721,54.346 65.307,58.295 65.915,59.747C66.275,60.602 66.544,60.725 66.758,60.792C66.905,60.837 67.05,60.849 67.152,60.849C67.209,60.849 67.276,60.872 67.276,60.928C67.276,60.984 67.164,61.006 67.05,61.006C66.905,61.006 66.173,61.006 65.488,60.984C65.296,60.972 65.138,60.972 65.138,60.917C65.138,60.872 65.162,60.872 65.206,60.849C65.262,60.827 65.363,60.748 65.296,60.59L64.408,58.397C64.385,58.352 64.374,58.34 64.317,58.34L62.034,58.34C61.989,58.34 61.955,58.363 61.932,58.418L61.371,59.949C61.281,60.185 61.224,60.42 61.224,60.59C61.224,60.782 61.392,60.849 61.562,60.849L61.652,60.849C61.73,60.849 61.752,60.882 61.752,60.928C61.752,60.984 61.697,61.006 61.606,61.006C61.371,61.006 60.83,60.972 60.717,60.972C60.617,60.972 60.122,61.006 59.716,61.006C59.593,61.006 59.525,60.984 59.525,60.928C59.525,60.882 59.57,60.849 59.615,60.849C59.683,60.849 59.829,60.837 59.908,60.827C60.357,60.77 60.548,60.432 60.74,59.949L63.068,53.963Z" style="fill:rgb(35,31,32);fill-rule:nonzero;"/>
            </g>
            <g transform="matrix(4.16667,0,0,4.16667,0,0)">
                <path d="M69.717,57.35C69.717,57.407 69.74,57.44 69.785,57.474C69.931,57.553 70.437,57.62 70.877,57.62C71.113,57.62 71.382,57.609 71.619,57.452C71.957,57.227 72.214,56.72 72.214,55.989C72.214,54.796 71.562,54.11 70.505,54.11C70.212,54.11 69.898,54.145 69.796,54.167C69.752,54.189 69.717,54.223 69.717,54.28L69.717,57.35ZM68.863,56.54C68.863,55.055 68.863,54.786 68.839,54.482C68.818,54.155 68.761,53.998 68.435,53.954C68.357,53.942 68.188,53.93 68.098,53.93C68.064,53.93 68.019,53.885 68.019,53.852C68.019,53.795 68.064,53.773 68.176,53.773C68.627,53.773 69.291,53.795 69.347,53.795C69.447,53.795 70.28,53.773 70.584,53.773C71.214,53.773 71.912,53.829 72.429,54.189C72.676,54.37 73.115,54.831 73.115,55.494C73.115,56.203 72.822,56.889 71.9,57.676C72.71,58.689 73.396,59.555 73.97,60.151C74.499,60.692 74.826,60.782 75.072,60.815C75.263,60.849 75.365,60.849 75.421,60.849C75.477,60.849 75.511,60.893 75.511,60.928C75.511,60.984 75.455,61.006 75.275,61.006L74.656,61.006C74.093,61.006 73.846,60.95 73.599,60.815C73.171,60.59 72.811,60.129 72.25,59.409C71.832,58.891 71.394,58.273 71.18,58.014C71.134,57.969 71.113,57.958 71.044,57.958L69.785,57.936C69.74,57.936 69.717,57.958 69.717,58.014L69.717,58.239C69.717,59.162 69.717,59.904 69.763,60.297C69.796,60.579 69.853,60.759 70.156,60.803C70.292,60.827 70.505,60.849 70.595,60.849C70.663,60.849 70.673,60.893 70.673,60.928C70.673,60.972 70.628,61.006 70.516,61.006C69.976,61.006 69.347,60.972 69.301,60.972C69.291,60.972 68.627,61.006 68.323,61.006C68.221,61.006 68.166,60.984 68.166,60.928C68.166,60.893 68.188,60.849 68.244,60.849C68.334,60.849 68.459,60.827 68.548,60.803C68.739,60.759 68.761,60.579 68.806,60.297C68.863,59.904 68.863,59.15 68.863,58.227L68.863,56.54Z" style="fill:rgb(35,31,32);fill-rule:nonzero;"/>
            </g>
            <g transform="matrix(4.16667,0,0,4.16667,0,0)">
                <path d="M75.917,60.872C75.782,60.803 75.771,60.77 75.771,60.512C75.771,60.04 75.816,59.657 75.827,59.499C75.827,59.397 75.849,59.341 75.906,59.341C75.962,59.341 75.996,59.375 75.996,59.454C75.996,59.532 75.996,59.667 76.029,59.803C76.187,60.5 76.929,60.748 77.593,60.748C78.572,60.748 79.078,60.196 79.078,59.476C79.078,58.79 78.707,58.464 77.83,57.811L77.379,57.474C76.31,56.675 75.962,56.09 75.962,55.426C75.962,54.301 76.851,53.626 78.156,53.626C78.548,53.626 78.943,53.683 79.179,53.739C79.371,53.784 79.449,53.784 79.529,53.784C79.607,53.784 79.628,53.795 79.628,53.852C79.628,53.897 79.585,54.211 79.585,54.864C79.585,55.01 79.573,55.078 79.505,55.078C79.437,55.078 79.427,55.034 79.416,54.954C79.404,54.842 79.326,54.583 79.269,54.482C79.202,54.37 78.876,54.009 77.987,54.009C77.267,54.009 76.67,54.37 76.67,55.043C76.67,55.651 76.974,56 77.953,56.665L78.234,56.856C79.437,57.676 79.854,58.34 79.854,59.162C79.854,59.723 79.64,60.331 78.931,60.792C78.515,61.063 77.897,61.129 77.357,61.129C76.896,61.129 76.322,61.063 75.917,60.872Z" style="fill:rgb(35,31,32);fill-rule:nonzero;"/>
            </g>
            <g transform="matrix(4.16667,0,0,4.16667,0,0)">
                <path d="M82.252,56.54C82.252,55.055 82.252,54.786 82.228,54.482C82.206,54.155 82.15,53.998 81.824,53.954C81.744,53.942 81.576,53.93 81.486,53.93C81.453,53.93 81.407,53.885 81.407,53.852C81.407,53.795 81.453,53.773 81.564,53.773C82.014,53.773 82.656,53.795 82.712,53.795C82.78,53.795 84.849,53.806 85.075,53.795C85.266,53.784 85.446,53.75 85.524,53.739C85.57,53.728 85.614,53.694 85.66,53.694C85.693,53.694 85.704,53.739 85.704,53.784C85.704,53.852 85.648,53.963 85.626,54.235C85.614,54.325 85.591,54.752 85.57,54.864C85.558,54.909 85.524,54.965 85.479,54.965C85.423,54.965 85.4,54.92 85.4,54.842C85.4,54.774 85.389,54.617 85.344,54.504C85.277,54.346 85.175,54.28 84.635,54.211C84.467,54.189 83.319,54.178 83.207,54.178C83.162,54.178 83.15,54.211 83.15,54.28L83.15,56.877C83.15,56.946 83.15,56.979 83.207,56.979C83.331,56.979 84.635,56.979 84.861,56.957C85.097,56.934 85.244,56.922 85.344,56.821C85.412,56.754 85.458,56.698 85.491,56.698C85.524,56.698 85.547,56.72 85.547,56.777C85.547,56.833 85.491,56.99 85.468,57.305C85.446,57.497 85.423,57.856 85.423,57.924C85.423,58.002 85.4,58.104 85.334,58.104C85.288,58.104 85.266,58.07 85.266,58.014C85.266,57.924 85.266,57.823 85.22,57.699C85.187,57.564 85.097,57.452 84.714,57.407C84.445,57.373 83.387,57.362 83.218,57.362C83.162,57.362 83.15,57.395 83.15,57.428L83.15,58.227C83.15,58.554 83.14,59.667 83.15,59.859C83.173,60.5 83.353,60.624 84.332,60.624C84.59,60.624 85.063,60.624 85.322,60.522C85.581,60.411 85.715,60.241 85.772,59.859C85.794,59.747 85.817,59.713 85.874,59.713C85.929,59.713 85.941,59.792 85.941,59.859C85.941,59.926 85.862,60.579 85.805,60.782C85.738,61.029 85.637,61.029 85.254,61.029C84.511,61.029 83.938,61.006 83.533,60.995C83.117,60.972 82.859,60.972 82.712,60.972C82.69,60.972 82.499,60.972 82.285,60.984C82.093,60.995 81.869,61.006 81.71,61.006C81.61,61.006 81.554,60.984 81.554,60.928C81.554,60.893 81.576,60.849 81.632,60.849C81.722,60.849 81.845,60.815 81.935,60.803C82.127,60.77 82.15,60.579 82.195,60.297C82.252,59.904 82.252,59.15 82.252,58.227L82.252,56.54Z" style="fill:rgb(35,31,32);fill-rule:nonzero;"/>
            </g>
            <g transform="matrix(4.16667,0,0,4.16667,0,0)">
                <path d="M90.846,58.227C90.846,59.15 90.846,59.904 90.89,60.297C90.924,60.579 90.969,60.759 91.273,60.803C91.408,60.827 91.633,60.849 91.723,60.849C91.791,60.849 91.801,60.893 91.801,60.928C91.801,60.972 91.757,61.006 91.645,61.006C91.104,61.006 90.474,60.972 90.418,60.972C90.374,60.972 89.687,61.006 89.394,61.006C89.282,61.006 89.237,60.984 89.237,60.928C89.237,60.893 89.259,60.86 89.316,60.86C89.406,60.86 89.518,60.837 89.608,60.815C89.81,60.77 89.867,60.579 89.901,60.297C89.946,59.904 89.946,59.15 89.946,58.227L89.946,54.211L88.517,54.235C87.898,54.245 87.663,54.313 87.515,54.538C87.403,54.707 87.392,54.774 87.359,54.842C87.335,54.92 87.302,54.932 87.257,54.932C87.235,54.932 87.19,54.909 87.19,54.852C87.19,54.752 87.392,53.897 87.403,53.818C87.425,53.762 87.471,53.637 87.504,53.637C87.573,53.637 87.673,53.716 87.943,53.75C88.224,53.784 88.607,53.795 88.719,53.795L92.455,53.795C92.781,53.795 93.005,53.773 93.163,53.75C93.309,53.728 93.399,53.706 93.445,53.706C93.489,53.706 93.489,53.762 93.489,53.818C93.489,54.11 93.456,54.796 93.456,54.909C93.456,54.988 93.411,55.034 93.366,55.034C93.321,55.034 93.298,55 93.287,54.864L93.275,54.762C93.242,54.47 93.029,54.256 92.083,54.235L90.846,54.211L90.846,58.227Z" style="fill:rgb(35,31,32);fill-rule:nonzero;"/>
            </g>
            <g transform="matrix(4.16667,0,0,4.16667,0,0)">
                <path d="M95.324,56.54C95.324,55.055 95.324,54.786 95.3,54.482C95.278,54.178 95.222,53.998 94.896,53.954C94.817,53.942 94.649,53.93 94.558,53.93C94.525,53.93 94.479,53.885 94.479,53.852C94.479,53.795 94.525,53.773 94.637,53.773C95.086,53.773 95.683,53.795 95.773,53.795C95.863,53.795 96.482,53.773 96.774,53.773C96.886,53.773 96.943,53.795 96.943,53.852C96.943,53.885 96.898,53.93 96.853,53.93C96.786,53.93 96.73,53.93 96.606,53.954C96.347,53.998 96.291,54.167 96.268,54.482C96.246,54.786 96.246,55.055 96.246,56.54L96.246,57.879C96.246,59.263 96.549,59.836 96.977,60.219C97.46,60.658 97.888,60.737 98.451,60.737C99.058,60.737 99.643,60.466 99.98,60.061C100.442,59.51 100.543,58.723 100.543,57.745L100.543,56.54C100.543,55.055 100.532,54.786 100.521,54.482C100.51,54.178 100.453,53.998 100.127,53.954C100.049,53.942 99.879,53.93 99.79,53.93C99.745,53.93 99.71,53.885 99.71,53.852C99.71,53.795 99.755,53.773 99.868,53.773C100.308,53.773 100.881,53.795 100.938,53.795C101.005,53.795 101.478,53.773 101.77,53.773C101.882,53.773 101.927,53.795 101.927,53.852C101.927,53.885 101.894,53.93 101.849,53.93C101.781,53.93 101.725,53.93 101.602,53.954C101.331,54.009 101.274,54.167 101.252,54.482C101.229,54.786 101.241,55.055 101.241,56.54L101.241,57.564C101.241,58.599 101.106,59.757 100.318,60.432C99.598,61.051 98.834,61.129 98.249,61.129C97.922,61.129 96.886,61.108 96.189,60.456C95.706,60.004 95.324,59.341 95.324,57.946L95.324,56.54Z" style="fill:rgb(35,31,32);fill-rule:nonzero;"/>
            </g>
            <g transform="matrix(4.16667,0,0,4.16667,0,0)">
                <path d="M105.201,57.35C105.201,57.407 105.225,57.44 105.27,57.474C105.416,57.553 105.922,57.62 106.36,57.62C106.597,57.62 106.866,57.609 107.103,57.452C107.44,57.227 107.699,56.72 107.699,55.989C107.699,54.796 107.047,54.11 105.989,54.11C105.696,54.11 105.382,54.145 105.28,54.167C105.235,54.189 105.201,54.223 105.201,54.28L105.201,57.35ZM104.347,56.54C104.347,55.055 104.347,54.786 104.324,54.482C104.302,54.155 104.246,53.998 103.919,53.954C103.841,53.942 103.672,53.93 103.582,53.93C103.548,53.93 103.503,53.885 103.503,53.852C103.503,53.795 103.548,53.773 103.66,53.773C104.11,53.773 104.774,53.795 104.831,53.795C104.932,53.795 105.764,53.773 106.067,53.773C106.697,53.773 107.396,53.829 107.913,54.189C108.16,54.37 108.6,54.831 108.6,55.494C108.6,56.203 108.307,56.889 107.384,57.676C108.194,58.689 108.88,59.555 109.454,60.151C109.982,60.692 110.31,60.782 110.556,60.815C110.747,60.849 110.849,60.849 110.905,60.849C110.961,60.849 110.995,60.893 110.995,60.928C110.995,60.984 110.938,61.006 110.759,61.006L110.14,61.006C109.577,61.006 109.33,60.95 109.083,60.815C108.655,60.59 108.295,60.129 107.733,59.409C107.316,58.891 106.878,58.273 106.664,58.014C106.619,57.969 106.597,57.958 106.529,57.958L105.27,57.936C105.225,57.936 105.201,57.958 105.201,58.014L105.201,58.239C105.201,59.162 105.201,59.904 105.247,60.297C105.28,60.579 105.337,60.759 105.641,60.803C105.775,60.827 105.989,60.849 106.079,60.849C106.146,60.849 106.158,60.893 106.158,60.928C106.158,60.972 106.113,61.006 106,61.006C105.46,61.006 104.831,60.972 104.785,60.972C104.774,60.972 104.11,61.006 103.807,61.006C103.705,61.006 103.649,60.984 103.649,60.928C103.649,60.893 103.672,60.849 103.729,60.849C103.818,60.849 103.942,60.827 104.032,60.803C104.223,60.759 104.246,60.579 104.29,60.297C104.347,59.904 104.347,59.15 104.347,58.227L104.347,56.54Z" style="fill:rgb(35,31,32);fill-rule:nonzero;"/>
            </g>
            <g transform="matrix(4.16667,0,0,4.16667,0,0)">
                <path d="M33.874,66.273C33.874,64.789 33.874,64.518 33.851,64.215C33.829,63.888 33.772,63.731 33.446,63.686C33.367,63.674 33.199,63.664 33.109,63.664C33.075,63.664 33.03,63.618 33.03,63.584C33.03,63.528 33.075,63.506 33.188,63.506C33.637,63.506 34.256,63.528 34.313,63.528C34.503,63.528 36.652,63.54 36.877,63.528C37.068,63.518 37.237,63.518 37.327,63.483C37.383,63.472 37.428,63.426 37.462,63.426C37.507,63.426 37.53,63.472 37.53,63.518C37.53,63.584 37.485,63.698 37.451,63.967C37.44,64.057 37.428,64.485 37.406,64.597C37.395,64.642 37.361,64.698 37.316,64.698C37.271,64.698 37.237,64.654 37.237,64.586C37.237,64.506 37.204,64.35 37.147,64.225C37.091,64.102 36.855,63.945 36.473,63.945L34.853,63.922C34.796,63.922 34.773,63.945 34.773,64.024L34.773,66.633C34.773,66.69 34.773,66.723 34.841,66.723L36.191,66.711C36.36,66.711 36.506,66.711 36.641,66.702C36.877,66.678 37.012,66.645 37.102,66.532C37.147,66.476 37.192,66.43 37.226,66.43C37.271,66.43 37.282,66.464 37.282,66.51C37.282,66.566 37.214,66.723 37.192,67.039C37.17,67.229 37.158,67.612 37.158,67.68C37.158,67.77 37.136,67.871 37.068,67.871C37.012,67.871 37.002,67.826 37.002,67.781C36.99,67.68 36.979,67.544 36.934,67.432C36.889,67.297 36.731,67.173 36.427,67.128C36.18,67.094 35.01,67.106 34.841,67.106C34.785,67.106 34.773,67.128 34.773,67.196L34.773,67.96C34.773,68.905 34.773,69.659 34.819,70.031C34.853,70.312 34.909,70.493 35.179,70.537C35.325,70.559 35.539,70.583 35.628,70.583C35.685,70.583 35.708,70.626 35.708,70.661C35.708,70.706 35.662,70.739 35.55,70.739C34.999,70.739 34.357,70.706 34.313,70.706C34.256,70.706 33.637,70.739 33.334,70.739C33.233,70.739 33.177,70.717 33.177,70.661C33.177,70.626 33.199,70.583 33.255,70.583C33.345,70.583 33.469,70.548 33.559,70.537C33.75,70.502 33.772,70.312 33.818,70.031C33.874,69.637 33.874,68.883 33.874,67.96L33.874,66.273Z" style="fill:rgb(35,31,32);fill-rule:nonzero;"/>
            </g>
            <g transform="matrix(4.16667,0,0,4.16667,0,0)">
                <path d="M41.029,69.524C41.603,70.155 42.345,70.469 43.234,70.469C44.146,70.469 45.911,69.975 45.911,67.229C45.911,66.319 45.709,65.586 45.349,65.024L41.029,69.524ZM45.067,64.676C44.505,64.035 43.74,63.731 42.941,63.731C41.299,63.731 40.106,64.777 40.106,66.847C40.106,67.792 40.332,68.579 40.759,69.198L45.067,64.676ZM39.634,70.975C39.612,71.008 39.578,71.008 39.533,70.975L39.308,70.784C39.263,70.739 39.252,70.717 39.285,70.682L40.151,69.793C39.42,69.075 39.094,68.04 39.094,67.106C39.094,65.565 40.275,63.371 43.008,63.371C44.088,63.371 44.91,63.653 45.574,64.159L46.395,63.281C46.429,63.237 46.474,63.237 46.541,63.303L46.732,63.495C46.789,63.551 46.778,63.574 46.732,63.618L45.934,64.44C46.552,65.058 46.935,65.903 46.935,66.959C46.935,69.096 45.36,70.864 42.975,70.864C41.918,70.864 41.085,70.559 40.489,70.076L39.634,70.975Z" style="fill:rgb(35,31,32);fill-rule:nonzero;"/>
            </g>
            <g transform="matrix(4.16667,0,0,4.16667,0,0)">
                <path d="M49.996,67.083C49.996,67.139 50.018,67.173 50.063,67.208C50.209,67.286 50.715,67.353 51.154,67.353C51.39,67.353 51.66,67.342 51.896,67.184C52.233,66.959 52.493,66.454 52.493,65.721C52.493,64.53 51.84,63.843 50.783,63.843C50.49,63.843 50.175,63.877 50.074,63.899C50.029,63.922 49.996,63.956 49.996,64.012L49.996,67.083ZM49.141,66.273C49.141,64.789 49.141,64.518 49.118,64.215C49.095,63.888 49.039,63.731 48.712,63.686C48.634,63.674 48.465,63.664 48.376,63.664C48.342,63.664 48.296,63.618 48.296,63.584C48.296,63.528 48.342,63.506 48.454,63.506C48.904,63.506 49.568,63.528 49.624,63.528C49.725,63.528 50.558,63.506 50.861,63.506C51.492,63.506 52.189,63.562 52.707,63.922C52.954,64.102 53.392,64.563 53.392,65.227C53.392,65.936 53.1,66.622 52.177,67.409C52.988,68.422 53.673,69.288 54.248,69.885C54.776,70.424 55.103,70.514 55.35,70.548C55.541,70.583 55.642,70.583 55.699,70.583C55.755,70.583 55.789,70.626 55.789,70.661C55.789,70.717 55.732,70.739 55.552,70.739L54.933,70.739C54.372,70.739 54.125,70.682 53.877,70.548C53.449,70.323 53.088,69.862 52.526,69.142C52.11,68.625 51.671,68.006 51.458,67.747C51.413,67.702 51.39,67.69 51.323,67.69L50.063,67.668C50.018,67.668 49.996,67.69 49.996,67.747L49.996,67.972C49.996,68.895 49.996,69.637 50.04,70.031C50.074,70.312 50.13,70.493 50.434,70.537C50.569,70.559 50.783,70.583 50.873,70.583C50.94,70.583 50.951,70.626 50.951,70.661C50.951,70.706 50.907,70.739 50.793,70.739C50.254,70.739 49.624,70.706 49.579,70.706C49.568,70.706 48.904,70.739 48.6,70.739C48.5,70.739 48.443,70.717 48.443,70.661C48.443,70.626 48.465,70.583 48.522,70.583C48.612,70.583 48.735,70.559 48.825,70.537C49.016,70.493 49.039,70.312 49.084,70.031C49.141,69.637 49.141,68.883 49.141,67.96L49.141,66.273Z" style="fill:rgb(35,31,32);fill-rule:nonzero;"/>
            </g>
            <g transform="matrix(4.16667,0,0,4.16667,0,0)">
                <path d="M59.513,70.469C60.402,70.469 62.191,69.997 62.191,67.229C62.191,64.934 60.795,63.731 59.232,63.731C57.578,63.731 56.386,64.766 56.386,66.847C56.386,69.075 57.724,70.469 59.513,70.469ZM59.288,63.371C61.515,63.371 63.203,64.733 63.203,66.959C63.203,69.096 61.617,70.864 59.232,70.864C56.521,70.864 55.363,68.827 55.363,67.106C55.363,65.565 56.554,63.371 59.288,63.371Z" style="fill:rgb(35,31,32);fill-rule:nonzero;"/>
            </g>
            <g transform="matrix(4.16667,0,0,4.16667,0,0)">
                <path d="M66.533,68.253C66.533,67.736 66.466,67.544 66.32,67.274C66.242,67.128 64.902,65.002 64.564,64.497C64.329,64.135 64.092,63.922 63.913,63.798C63.766,63.708 63.576,63.664 63.497,63.664C63.44,63.664 63.395,63.618 63.395,63.574C63.395,63.528 63.429,63.506 63.518,63.506C63.71,63.506 64.453,63.528 64.498,63.528C64.564,63.528 64.97,63.506 65.353,63.506C65.464,63.506 65.488,63.528 65.488,63.574C65.488,63.608 65.419,63.641 65.33,63.674C65.252,63.708 65.206,63.753 65.206,63.833C65.206,63.967 65.273,64.08 65.341,64.204L67.14,67.184C67.343,66.78 68.581,64.733 68.761,64.417C68.884,64.204 68.929,64.045 68.929,63.922C68.929,63.788 68.884,63.708 68.772,63.674C68.682,63.653 68.627,63.608 68.627,63.562C68.627,63.528 68.682,63.506 68.784,63.506C69.043,63.506 69.391,63.528 69.469,63.528C69.537,63.528 70.246,63.506 70.437,63.506C70.505,63.506 70.561,63.528 70.561,63.562C70.561,63.608 70.515,63.664 70.437,63.664C70.324,63.664 70.133,63.698 69.976,63.788C69.785,63.899 69.695,64 69.481,64.259C69.155,64.642 67.759,66.892 67.557,67.297C67.388,67.634 67.433,67.938 67.433,68.253L67.433,69.075C67.433,69.232 67.433,69.637 67.467,70.031C67.49,70.312 67.557,70.493 67.849,70.537C67.985,70.559 68.21,70.583 68.299,70.583C68.356,70.583 68.378,70.626 68.378,70.661C68.378,70.706 68.322,70.739 68.22,70.739C67.669,70.739 67.029,70.706 66.972,70.706C66.927,70.706 66.297,70.739 66.004,70.739C65.892,70.739 65.847,70.717 65.847,70.661C65.847,70.626 65.87,70.583 65.925,70.583C66.016,70.583 66.128,70.559 66.218,70.537C66.421,70.493 66.489,70.312 66.511,70.031C66.533,69.637 66.533,69.232 66.533,69.075L66.533,68.253Z" style="fill:rgb(35,31,32);fill-rule:nonzero;"/>
            </g>
            <g transform="matrix(4.16667,0,0,4.16667,0,0)">
                <path d="M74.464,67.68C74.509,67.68 74.509,67.657 74.498,67.612L73.519,64.991C73.463,64.844 73.408,64.844 73.351,64.991L72.428,67.612C72.418,67.657 72.428,67.68 72.462,67.68L74.464,67.68ZM73.362,63.698C73.486,63.382 73.531,63.327 73.599,63.327C73.699,63.327 73.734,63.461 73.835,63.674C74.015,64.08 75.601,68.028 76.209,69.479C76.568,70.334 76.838,70.458 77.052,70.526C77.199,70.571 77.344,70.583 77.446,70.583C77.502,70.583 77.57,70.604 77.57,70.661C77.57,70.717 77.457,70.739 77.344,70.739C77.199,70.739 76.466,70.739 75.781,70.717C75.589,70.706 75.432,70.706 75.432,70.649C75.432,70.604 75.455,70.604 75.5,70.583C75.555,70.559 75.657,70.481 75.589,70.323L74.701,68.129C74.678,68.084 74.667,68.073 74.611,68.073L72.328,68.073C72.282,68.073 72.249,68.096 72.226,68.152L71.664,69.682C71.574,69.918 71.517,70.155 71.517,70.323C71.517,70.514 71.686,70.583 71.855,70.583L71.945,70.583C72.023,70.583 72.046,70.616 72.046,70.661C72.046,70.717 71.99,70.739 71.9,70.739C71.664,70.739 71.123,70.706 71.011,70.706C70.91,70.706 70.416,70.739 70.009,70.739C69.886,70.739 69.818,70.717 69.818,70.661C69.818,70.616 69.864,70.583 69.908,70.583C69.976,70.583 70.123,70.571 70.201,70.559C70.651,70.502 70.842,70.166 71.033,69.682L73.362,63.698Z" style="fill:rgb(35,31,32);fill-rule:nonzero;"/>
            </g>
            <g transform="matrix(4.16667,0,0,4.16667,0,0)">
                <path d="M48.214,17.583C48.468,17.836 48.585,18.151 48.214,18.521C48.214,18.521 46.212,20.549 45.822,20.914C45.432,21.278 38.369,22.835 38.369,22.835C37.99,22.908 37.702,23.11 37.43,22.836L35.18,20.586C34.945,20.353 34.759,19.896 35.221,19.687L42.66,17.778L40.645,15.762L35.985,16.81C35.534,16.877 35.243,17.038 35.047,16.812L32.517,14.281C32.282,14.048 32.068,13.539 32.557,13.384L37.256,12.374L33.271,8.39C33.116,8.234 32.842,7.881 33.253,7.469L35.189,5.534C35.56,5.165 35.873,5.282 36.126,5.536L48.214,17.583Z" style="fill:rgb(0,115,174);fill-rule:nonzero;"/>
            </g>
            <g transform="matrix(4.16667,0,0,4.16667,0,0)">
                <path d="M37.328,4.333C37.075,4.079 36.958,3.766 37.329,3.394L39.263,1.459C39.674,1.048 40.028,1.323 40.182,1.478L44.166,5.462L45.176,0.762C45.332,0.274 45.84,0.491 46.074,0.724L48.604,3.254C48.832,3.452 48.669,3.741 48.605,4.189L47.556,8.852L49.572,10.868L51.481,3.427C51.69,2.965 52.145,3.153 52.379,3.389L54.628,5.637C54.902,5.911 54.703,6.196 54.629,6.575C54.629,6.575 53.07,13.64 52.707,14.028C52.343,14.417 50.317,16.42 50.317,16.42C49.942,16.794 49.63,16.674 49.377,16.42L37.328,4.333Z" style="fill:rgb(0,115,174);fill-rule:nonzero;"/>
            </g>
            <g transform="matrix(4.16667,0,0,4.16667,0,0)">
                <path d="M49.377,31.094C49.63,30.838 49.944,30.721 50.317,31.094C50.317,31.094 52.343,33.098 52.71,33.487C53.071,33.876 54.628,40.939 54.628,40.939C54.703,41.318 54.902,41.602 54.628,41.877L52.378,44.128C52.145,44.361 51.688,44.549 51.48,44.088L49.572,36.648L47.557,38.665L48.605,43.323C48.669,43.772 48.832,44.066 48.605,44.263L46.076,46.793C45.84,47.028 45.332,47.243 45.177,46.754L44.168,42.053L40.185,46.04C40.029,46.194 39.674,46.469 39.263,46.057L37.328,44.12C36.959,43.749 37.077,43.433 37.33,43.18L49.377,31.094Z" style="fill:rgb(136,181,217);fill-rule:nonzero;"/>
            </g>
            <g transform="matrix(4.16667,0,0,4.16667,0,0)">
                <path d="M36.128,41.979C35.875,42.231 35.56,42.352 35.188,41.979L33.254,40.045C32.842,39.634 33.116,39.279 33.273,39.125L37.255,35.143L32.557,34.131C32.067,33.976 32.282,33.468 32.519,33.233L35.047,30.705C35.245,30.477 35.536,30.638 35.984,30.705L40.644,31.753L42.661,29.736L35.221,27.829C34.76,27.62 34.948,27.164 35.181,26.929L37.43,24.679C37.706,24.406 37.99,24.606 38.371,24.679C38.371,24.679 45.432,26.237 45.822,26.601C46.211,26.966 48.213,28.99 48.213,28.99C48.587,29.362 48.468,29.678 48.215,29.932L36.128,41.979Z" style="fill:rgb(136,181,217);fill-rule:nonzero;"/>
            </g>
            <g transform="matrix(4.16667,0,0,4.16667,0,0)">
                <path d="M62.892,29.934C62.636,29.681 62.519,29.365 62.892,28.995C62.892,28.995 64.893,26.967 65.283,26.603C65.672,26.239 72.736,24.682 72.736,24.682C73.115,24.608 73.401,24.406 73.675,24.682L75.924,26.931C76.16,27.165 76.346,27.621 75.885,27.831L68.445,29.739L70.46,31.753L75.119,30.705C75.57,30.64 75.862,30.479 76.06,30.707L78.587,33.234C78.822,33.468 79.038,33.978 78.548,34.135L73.849,35.143L77.834,39.127C77.988,39.281 78.262,39.637 77.851,40.046L75.916,41.981C75.546,42.352 75.232,42.234 74.978,41.979L62.892,29.934Z" style="fill:rgb(136,181,217);fill-rule:nonzero;"/>
            </g>
            <g transform="matrix(4.16667,0,0,4.16667,0,0)">
                <path d="M73.775,43.184C74.029,43.437 74.148,43.749 73.775,44.123L71.841,46.059C71.431,46.471 71.078,46.194 70.921,46.04L66.938,42.053L65.928,46.756C65.775,47.245 65.264,47.028 65.03,46.795L62.502,44.264C62.273,44.066 62.435,43.775 62.501,43.323L63.55,38.665L61.534,36.648L59.627,44.088C59.416,44.552 58.96,44.366 58.726,44.128L56.476,41.879C56.201,41.605 56.401,41.322 56.476,40.94C56.476,40.94 58.033,33.878 58.396,33.489C58.761,33.099 60.789,31.096 60.789,31.096C61.16,30.726 61.476,30.842 61.728,31.096L73.775,43.184Z" style="fill:rgb(136,181,217);fill-rule:nonzero;"/>
            </g>
            <g transform="matrix(4.16667,0,0,4.16667,0,0)">
                <path d="M61.73,16.42C61.474,16.675 61.16,16.792 60.789,16.42C60.789,16.42 58.762,14.418 58.396,14.031C58.033,13.641 56.474,6.577 56.474,6.577C56.401,6.197 56.202,5.911 56.476,5.637L58.726,3.387C58.96,3.154 59.415,2.967 59.625,3.429L61.533,10.867L63.548,8.851L62.501,4.192C62.436,3.743 62.273,3.449 62.5,3.254L65.027,0.724C65.264,0.491 65.772,0.274 65.929,0.763L66.935,5.464L70.92,1.48C71.078,1.323 71.429,1.05 71.838,1.46L73.777,3.394C74.146,3.768 74.029,4.079 73.775,4.333L61.73,16.42Z" style="fill:rgb(0,115,174);fill-rule:nonzero;"/>
            </g>
            <g transform="matrix(4.16667,0,0,4.16667,0,0)">
                <path d="M74.975,5.536C75.232,5.282 75.544,5.166 75.918,5.536L77.851,7.472C78.26,7.881 77.989,8.236 77.832,8.39L73.848,12.375L78.548,13.383C79.038,13.539 78.82,14.048 78.586,14.281L76.058,16.81C75.859,17.038 75.568,16.875 75.121,16.81L70.461,15.762L68.445,17.778L75.885,19.688C76.345,19.897 76.156,20.353 75.924,20.585L73.673,22.835C73.4,23.107 73.115,22.912 72.734,22.836C72.734,22.836 65.672,21.28 65.283,20.916C64.894,20.549 62.892,18.524 62.892,18.524C62.519,18.151 62.636,17.838 62.892,17.583L74.975,5.536Z" style="fill:rgb(0,115,174);fill-rule:nonzero;"/>
            </g>
        </g>
    </g>
</svg>
